<?xml version="1.0" encoding="utf-8"?>
<!-- Generator: Adobe Illustrator 24.0.1, SVG Export Plug-In . SVG Version: 6.00 Build 0)  -->
<svg version="1.0" id="Camada_1" xmlns="http://www.w3.org/2000/svg" xmlns:xlink="http://www.w3.org/1999/xlink" x="0px" y="0px"
	 viewBox="0 0 297.64 439.37" style="enable-background:new 0 0 595.28 439.37;" xml:space="preserve">
<style type="text/css">
	.st0{fill:#6B1415;}
	.st1{fill:#FDE1D1;}
	.st2{fill:#FFFFFF;}
	.st3{clip-path:url(#SVGID_2_);}
</style>
<rect x="297.3" y="0" class="st0" width="297.52" height="439.37"/>
<rect y="0" class="st0" width="297.3" height="439.37"/>
<path class="st2" d="M69,385.75l-1.45-2.5h-0.79v2.5h-1.02v-6.27h2.15c0.48,0,0.91,0.09,1.22,0.26c0.34,0.17,0.6,0.4,0.77,0.68
	s0.26,0.6,0.26,0.94c0,0.43-0.14,0.79-0.37,1.11c-0.23,0.34-0.6,0.57-1.11,0.68l1.56,2.61L69,385.75L69,385.75z M66.76,382.43h1.13
	c0.4,0,0.68-0.11,0.88-0.31c0.2-0.17,0.28-0.43,0.28-0.77c0-0.31-0.09-0.57-0.28-0.77c-0.2-0.17-0.48-0.26-0.88-0.26h-1.13V382.43z
	 M72.45,380.3v1.84h2.15V383h-2.15v1.9h2.44v0.85h-3.46v-6.27h3.46v0.82L72.45,380.3L72.45,380.3z M75.8,382.6
	c0-0.62,0.14-1.16,0.43-1.64c0.28-0.48,0.68-0.88,1.16-1.13c0.48-0.28,1.02-0.43,1.62-0.43c0.65,0,1.25,0.17,1.79,0.51
	c0.51,0.31,0.88,0.77,1.11,1.39h-1.22c-0.17-0.34-0.4-0.6-0.68-0.74c-0.28-0.17-0.62-0.26-0.99-0.26c-0.43,0-0.79,0.09-1.11,0.28
	c-0.34,0.17-0.6,0.45-0.77,0.79s-0.28,0.77-0.28,1.22s0.11,0.88,0.28,1.22s0.43,0.62,0.77,0.79c0.31,0.2,0.68,0.28,1.11,0.28
	c0.37,0,0.71-0.09,0.99-0.23c0.28-0.17,0.51-0.43,0.68-0.74h1.22c-0.23,0.6-0.6,1.05-1.11,1.39c-0.54,0.31-1.13,0.48-1.79,0.48
	c-0.6,0-1.13-0.14-1.62-0.43c-0.48-0.26-0.88-0.65-1.16-1.13C75.94,383.76,75.8,383.22,75.8,382.6L75.8,382.6z M86.88,384.47h-2.64
	l-0.45,1.28h-1.05l2.24-6.27h1.19l2.24,6.27h-1.08L86.88,384.47z M86.6,383.62l-1.02-2.89l-1.05,2.89H86.6z M92.64,385.75l-1.45-2.5
	H90.4v2.5h-1.02v-6.27h2.15c0.48,0,0.88,0.09,1.22,0.26c0.34,0.17,0.6,0.4,0.77,0.68c0.14,0.28,0.23,0.6,0.23,0.94
	c0,0.43-0.11,0.79-0.34,1.11c-0.26,0.34-0.6,0.57-1.11,0.68l1.56,2.61L92.64,385.75L92.64,385.75z M90.4,382.43h1.13
	c0.4,0,0.68-0.11,0.88-0.31c0.2-0.17,0.28-0.43,0.28-0.77c0-0.31-0.09-0.57-0.28-0.77c-0.2-0.17-0.48-0.26-0.88-0.26H90.4V382.43z
	 M98.31,385.75l-1.45-2.5h-0.77v2.5h-1.02v-6.27h2.15c0.48,0,0.88,0.09,1.22,0.26c0.34,0.17,0.57,0.4,0.74,0.68s0.26,0.6,0.26,0.94
	c0,0.43-0.11,0.79-0.37,1.11c-0.23,0.34-0.6,0.57-1.08,0.68l1.53,2.61L98.31,385.75L98.31,385.75z M96.09,382.43h1.13
	c0.37,0,0.68-0.11,0.85-0.31c0.2-0.17,0.31-0.43,0.31-0.77c0-0.31-0.11-0.57-0.28-0.77c-0.2-0.17-0.48-0.26-0.88-0.26h-1.13V382.43z
	 M101.79,380.3v1.84h2.15V383h-2.15v1.9h2.41v0.85h-3.46v-6.27h3.46v0.82L101.79,380.3L101.79,380.3z M109.98,381.29
	c-0.14-0.31-0.37-0.57-0.65-0.71c-0.31-0.17-0.62-0.26-1.02-0.26c-0.4,0-0.77,0.11-1.11,0.28c-0.31,0.2-0.57,0.45-0.77,0.79
	c-0.17,0.34-0.26,0.74-0.26,1.19s0.09,0.85,0.26,1.19c0.2,0.34,0.45,0.62,0.77,0.79c0.34,0.2,0.71,0.28,1.11,0.28
	c0.57,0,1.02-0.17,1.36-0.48c0.37-0.31,0.57-0.71,0.65-1.25h-2.35v-0.82h3.46v0.79c-0.09,0.48-0.26,0.94-0.54,1.33
	c-0.28,0.43-0.62,0.74-1.08,0.99c-0.45,0.23-0.94,0.37-1.5,0.37c-0.57,0-1.11-0.14-1.59-0.43c-0.51-0.26-0.88-0.65-1.16-1.13
	c-0.28-0.48-0.43-1.02-0.43-1.64s0.14-1.16,0.43-1.64c0.28-0.48,0.65-0.88,1.16-1.13c0.48-0.28,1.02-0.43,1.59-0.43
	c0.68,0,1.28,0.17,1.79,0.51c0.51,0.31,0.91,0.77,1.13,1.39h-1.25V381.29z M113.44,379.48v4c0,0.48,0.11,0.82,0.37,1.08
	c0.26,0.23,0.6,0.34,1.05,0.34s0.79-0.11,1.05-0.34c0.26-0.26,0.37-0.6,0.37-1.08v-4h1.02v3.97c0,0.51-0.11,0.94-0.34,1.3
	c-0.2,0.34-0.51,0.62-0.88,0.79c-0.37,0.17-0.79,0.26-1.22,0.26c-0.45,0-0.88-0.09-1.25-0.26s-0.65-0.45-0.88-0.79
	c-0.2-0.37-0.31-0.79-0.31-1.3v-3.97H113.44z M119.65,380.3v1.84h2.18V383h-2.18v1.9h2.44v0.85h-3.46v-6.27h3.46v0.82L119.65,380.3
	L119.65,380.3z M130.82,385.75h-1.02l-3.09-4.68v4.68h-1.02v-6.27h1.02l3.09,4.65v-4.65h1.02V385.75z M135.04,385.8
	c-0.6,0-1.13-0.14-1.62-0.4c-0.48-0.28-0.88-0.68-1.16-1.16s-0.43-1.02-0.43-1.64s0.14-1.16,0.43-1.64
	c0.28-0.48,0.68-0.88,1.16-1.13c0.48-0.28,1.02-0.43,1.62-0.43c0.57,0,1.11,0.14,1.62,0.43c0.48,0.26,0.88,0.65,1.13,1.13
	c0.28,0.48,0.43,1.02,0.43,1.64s-0.14,1.16-0.43,1.64c-0.26,0.48-0.65,0.88-1.13,1.16C136.15,385.66,135.61,385.8,135.04,385.8
	L135.04,385.8z M135.04,384.92c0.4,0,0.77-0.11,1.11-0.28c0.31-0.2,0.57-0.48,0.77-0.82c0.17-0.34,0.26-0.77,0.26-1.22
	s-0.09-0.88-0.26-1.22c-0.2-0.34-0.45-0.62-0.77-0.79c-0.34-0.2-0.71-0.28-1.11-0.28c-0.43,0-0.79,0.09-1.11,0.28
	c-0.34,0.17-0.6,0.45-0.77,0.79c-0.2,0.34-0.28,0.77-0.28,1.22s0.09,0.88,0.28,1.22c0.17,0.34,0.43,0.62,0.77,0.82
	C134.25,384.81,134.62,384.92,135.04,384.92L135.04,384.92z M145.36,384.47h-2.64l-0.45,1.28h-1.08l2.27-6.27h1.16l2.27,6.27h-1.11
	L145.36,384.47z M145.05,383.62l-0.99-2.89l-1.05,2.89H145.05z M152.22,381.35c0,0.31-0.09,0.62-0.23,0.91
	c-0.14,0.28-0.4,0.51-0.71,0.68c-0.34,0.17-0.77,0.26-1.28,0.26h-1.13v2.55h-1.02v-6.27H150c0.48,0,0.88,0.09,1.22,0.26
	s0.6,0.4,0.74,0.68C152.14,380.67,152.22,381.01,152.22,381.35L152.22,381.35z M150.01,382.37c0.4,0,0.68-0.09,0.88-0.28
	c0.2-0.17,0.28-0.43,0.28-0.74c0-0.68-0.4-1.02-1.16-1.02h-1.13v2.04L150.01,382.37L150.01,382.37z M154.23,384.92h2.13v0.82h-3.15
	v-6.27h1.02L154.23,384.92L154.23,384.92z M158.23,379.48v6.27h-1.02v-6.27H158.23z M159.22,382.6c0-0.62,0.14-1.16,0.45-1.64
	c0.28-0.48,0.65-0.88,1.13-1.13c0.51-0.28,1.05-0.43,1.62-0.43c0.68,0,1.28,0.17,1.79,0.51c0.51,0.31,0.88,0.77,1.13,1.39h-1.25
	c-0.17-0.34-0.37-0.6-0.68-0.74c-0.28-0.17-0.62-0.26-0.99-0.26c-0.4,0-0.77,0.09-1.11,0.28c-0.31,0.17-0.57,0.45-0.77,0.79
	c-0.17,0.34-0.26,0.77-0.26,1.22s0.09,0.88,0.26,1.22c0.2,0.34,0.45,0.62,0.77,0.79c0.34,0.2,0.71,0.28,1.11,0.28
	c0.37,0,0.71-0.09,0.99-0.23c0.31-0.17,0.51-0.43,0.68-0.74h1.25c-0.26,0.6-0.62,1.05-1.13,1.39c-0.51,0.31-1.11,0.48-1.79,0.48
	c-0.6,0-1.13-0.14-1.62-0.43c-0.48-0.26-0.85-0.65-1.13-1.13C159.36,383.76,159.22,383.22,159.22,382.6L159.22,382.6z
	 M170.31,384.47h-2.61l-0.45,1.28h-1.08l2.24-6.27h1.19l2.24,6.27h-1.08L170.31,384.47z M170.02,383.62l-1.02-2.89l-1.02,2.89
	H170.02z M176.85,379.48v0.85h-1.67v5.42h-1.02v-5.42h-1.67v-0.85H176.85z M178.92,379.48v6.27h-1.05v-6.27H178.92z M185.64,379.48
	l-2.35,6.27h-1.16l-2.38-6.27h1.11l1.84,5.22l1.87-5.22H185.64z M189.35,385.8c-0.57,0-1.11-0.14-1.62-0.4
	c-0.48-0.28-0.85-0.68-1.16-1.16c-0.28-0.48-0.43-1.02-0.43-1.64s0.14-1.16,0.43-1.64c0.31-0.48,0.68-0.88,1.16-1.13
	c0.51-0.28,1.05-0.43,1.62-0.43c0.6,0,1.13,0.14,1.62,0.43c0.48,0.26,0.88,0.65,1.16,1.13s0.43,1.02,0.43,1.64s-0.14,1.16-0.43,1.64
	c-0.28,0.48-0.68,0.88-1.16,1.16C190.49,385.66,189.95,385.8,189.35,385.8L189.35,385.8z M189.35,384.92c0.43,0,0.79-0.11,1.11-0.28
	c0.34-0.2,0.6-0.48,0.77-0.82s0.28-0.77,0.28-1.22s-0.11-0.88-0.28-1.22s-0.43-0.62-0.77-0.79c-0.31-0.2-0.68-0.28-1.11-0.28
	c-0.4,0-0.77,0.09-1.11,0.28c-0.31,0.17-0.57,0.45-0.77,0.79c-0.17,0.34-0.26,0.77-0.26,1.22s0.09,0.88,0.26,1.22
	c0.2,0.34,0.45,0.62,0.77,0.82C188.59,384.81,188.96,384.92,189.35,384.92L189.35,384.92z M198.77,385.8c-0.6,0-1.13-0.14-1.62-0.4
	c-0.48-0.28-0.88-0.68-1.16-1.16s-0.43-1.02-0.43-1.64s0.14-1.16,0.43-1.64c0.28-0.48,0.68-0.88,1.16-1.13
	c0.48-0.28,1.02-0.43,1.62-0.43c0.57,0,1.11,0.14,1.62,0.43c0.48,0.26,0.85,0.65,1.13,1.13s0.43,1.02,0.43,1.64
	s-0.14,1.16-0.43,1.64c-0.28,0.48-0.65,0.88-1.13,1.16C199.87,385.66,199.33,385.8,198.77,385.8L198.77,385.8z M198.77,384.92
	c0.4,0,0.77-0.11,1.11-0.28c0.31-0.2,0.57-0.48,0.74-0.82c0.2-0.34,0.28-0.77,0.28-1.22s-0.09-0.88-0.28-1.22
	c-0.17-0.34-0.43-0.62-0.74-0.79c-0.34-0.2-0.71-0.28-1.11-0.28c-0.43,0-0.79,0.09-1.11,0.28c-0.34,0.17-0.6,0.45-0.77,0.79
	c-0.2,0.34-0.28,0.77-0.28,1.22s0.09,0.88,0.28,1.22c0.17,0.34,0.43,0.62,0.77,0.82C197.97,384.81,198.34,384.92,198.77,384.92
	L198.77,384.92z M203.98,379.48v4c0,0.48,0.11,0.82,0.37,1.08c0.26,0.23,0.6,0.34,1.05,0.34c0.43,0,0.79-0.11,1.05-0.34
	c0.23-0.26,0.37-0.6,0.37-1.08v-4h1.02v3.97c0,0.51-0.11,0.94-0.34,1.3c-0.23,0.34-0.51,0.62-0.88,0.79
	c-0.37,0.17-0.79,0.26-1.25,0.26c-0.45,0-0.85-0.09-1.22-0.26s-0.65-0.45-0.88-0.79c-0.23-0.37-0.31-0.79-0.31-1.3v-3.97H203.98z
	 M216.65,385.75h-1.02l-3.09-4.68v4.68h-1.05v-6.27h1.05l3.09,4.65v-4.65h1.02V385.75z M220.85,385.8c-0.57,0-1.11-0.14-1.62-0.4
	c-0.48-0.28-0.88-0.68-1.16-1.16s-0.43-1.02-0.43-1.64s0.14-1.16,0.43-1.64c0.28-0.48,0.68-0.88,1.16-1.13
	c0.51-0.28,1.05-0.43,1.62-0.43c0.6,0,1.13,0.14,1.62,0.43c0.48,0.26,0.88,0.65,1.16,1.13s0.43,1.02,0.43,1.64s-0.14,1.16-0.43,1.64
	c-0.28,0.48-0.68,0.88-1.16,1.16C221.98,385.66,221.44,385.8,220.85,385.8L220.85,385.8z M220.85,384.92c0.43,0,0.79-0.11,1.11-0.28
	c0.34-0.2,0.57-0.48,0.77-0.82c0.17-0.34,0.28-0.77,0.28-1.22s-0.11-0.88-0.28-1.22c-0.2-0.34-0.43-0.62-0.77-0.79
	c-0.31-0.2-0.68-0.28-1.11-0.28s-0.79,0.09-1.11,0.28c-0.31,0.17-0.57,0.45-0.77,0.79c-0.17,0.34-0.26,0.77-0.26,1.22
	s0.09,0.88,0.26,1.22c0.2,0.34,0.45,0.62,0.77,0.82C220.05,384.81,220.42,384.92,220.85,384.92L220.85,384.92z M229.46,385.8
	c-0.43,0-0.82-0.09-1.13-0.23c-0.34-0.14-0.62-0.34-0.79-0.62c-0.2-0.26-0.31-0.57-0.31-0.94h1.11c0.03,0.26,0.14,0.48,0.31,0.65
	c0.2,0.17,0.48,0.28,0.82,0.28s0.62-0.09,0.82-0.28c0.2-0.17,0.28-0.37,0.28-0.65c0-0.2-0.06-0.37-0.17-0.51
	c-0.14-0.14-0.28-0.23-0.45-0.31c-0.2-0.06-0.45-0.14-0.77-0.23c-0.43-0.11-0.74-0.23-0.99-0.34c-0.26-0.09-0.48-0.28-0.65-0.51
	c-0.2-0.23-0.28-0.54-0.28-0.94c0-0.37,0.09-0.68,0.28-0.94c0.17-0.28,0.43-0.48,0.74-0.62c0.34-0.14,0.71-0.23,1.13-0.23
	c0.6,0,1.11,0.17,1.5,0.45c0.37,0.31,0.6,0.74,0.62,1.25h-1.13c0-0.23-0.11-0.43-0.31-0.57c-0.2-0.17-0.45-0.26-0.79-0.26
	c-0.28,0-0.54,0.09-0.71,0.23c-0.2,0.14-0.28,0.37-0.28,0.65c0,0.2,0.06,0.34,0.17,0.48c0.11,0.11,0.28,0.2,0.45,0.28
	c0.17,0.06,0.43,0.14,0.74,0.23c0.43,0.11,0.74,0.23,1.02,0.34c0.26,0.11,0.48,0.28,0.65,0.54c0.2,0.23,0.28,0.54,0.28,0.94
	c0,0.31-0.09,0.62-0.26,0.91c-0.17,0.28-0.43,0.51-0.77,0.68C230.29,385.72,229.89,385.8,229.46,385.8L229.46,385.8z M233.86,379.48
	v6.27h-1.02v-6.27H233.86z M239.24,379.48v0.85h-1.67v5.42h-1.02v-5.42h-1.67v-0.85H239.24z M241.31,380.3v1.84h2.15V383h-2.15v1.9
	h2.41v0.85h-3.43v-6.27h3.43v0.82L241.31,380.3L241.31,380.3z M97.48,395.36l-1.84,6.24h-1.16l-1.3-4.74l-1.42,4.74l-1.13,0.03
	l-1.79-6.27h1.11l1.28,5.08l1.42-5.08h1.16l1.3,5.05l1.3-5.05H97.48z M106.5,395.36l-1.87,6.24h-1.16l-1.3-4.74l-1.39,4.74
	l-1.16,0.03l-1.79-6.27h1.11l1.3,5.08l1.39-5.08h1.16l1.3,5.05l1.3-5.05H106.5z M115.48,395.36l-1.87,6.24h-1.16l-1.3-4.74
	l-1.39,4.74l-1.16,0.03l-1.76-6.27h1.08l1.3,5.08l1.39-5.08h1.16l1.3,5.05l1.3-5.05H115.48z M116.73,401.65
	c-0.17,0-0.34-0.06-0.45-0.17c-0.14-0.14-0.2-0.28-0.2-0.48c0-0.17,0.06-0.34,0.2-0.45c0.11-0.14,0.28-0.2,0.45-0.2
	c0.2,0,0.34,0.06,0.45,0.2c0.14,0.11,0.2,0.28,0.2,0.45c0,0.2-0.06,0.34-0.2,0.48C117.07,401.6,116.93,401.65,116.73,401.65
	L116.73,401.65z M125.09,395.36v6.24h-1.05v-4.28l-1.9,4.28h-0.71l-1.93-4.28v4.28h-1.02v-6.24h1.11l2.21,4.91l2.18-4.91H125.09z
	 M127.45,395.36v6.24h-1.02v-6.24H127.45z M135.38,395.36v6.24h-1.02v-4.28l-1.9,4.28h-0.71l-1.93-4.28v4.28h-1.02v-6.24h1.11
	l2.18,4.91l2.21-4.91H135.38z M139.61,401.65c-0.6,0-1.13-0.11-1.62-0.4c-0.48-0.28-0.88-0.65-1.16-1.13
	c-0.28-0.51-0.43-1.05-0.43-1.67c0-0.6,0.14-1.16,0.43-1.64c0.28-0.48,0.68-0.85,1.16-1.13c0.48-0.26,1.02-0.4,1.62-0.4
	c0.57,0,1.11,0.14,1.62,0.4c0.48,0.28,0.85,0.65,1.13,1.13s0.43,1.05,0.43,1.64c0,0.62-0.14,1.16-0.43,1.67
	c-0.28,0.48-0.65,0.85-1.13,1.13C140.71,401.54,140.17,401.65,139.61,401.65L139.61,401.65z M139.61,400.78
	c0.4,0,0.77-0.09,1.11-0.28c0.31-0.2,0.57-0.45,0.77-0.82c0.17-0.34,0.26-0.74,0.26-1.22c0-0.45-0.09-0.85-0.26-1.19
	c-0.2-0.37-0.45-0.62-0.77-0.82c-0.34-0.17-0.71-0.28-1.11-0.28c-0.43,0-0.79,0.11-1.11,0.28c-0.34,0.2-0.6,0.45-0.77,0.82
	c-0.2,0.34-0.28,0.74-0.28,1.19c0,0.48,0.09,0.88,0.28,1.22c0.17,0.37,0.43,0.62,0.77,0.82
	C138.81,400.69,139.18,400.78,139.61,400.78L139.61,400.78z M150.38,395.36v6.24h-1.02v-4.28l-1.9,4.28h-0.71l-1.93-4.28v4.28h-1.02
	v-6.24h1.11l2.18,4.91l2.21-4.91H150.38z M152.76,396.18v1.84h2.15v0.82h-2.15v1.93h2.44v0.82h-3.46v-6.27h3.46v0.85L152.76,396.18
	L152.76,396.18z M157.46,395.36v3.97c0,0.48,0.14,0.85,0.37,1.08c0.26,0.23,0.6,0.37,1.05,0.37s0.79-0.14,1.05-0.37
	c0.26-0.23,0.37-0.6,0.37-1.08v-3.97h1.02v3.97c0,0.51-0.11,0.94-0.31,1.28c-0.23,0.37-0.54,0.62-0.91,0.79
	c-0.37,0.17-0.77,0.26-1.22,0.26s-0.88-0.09-1.25-0.26s-0.65-0.43-0.88-0.79c-0.2-0.34-0.31-0.77-0.31-1.28v-3.97H157.46z
	 M163.7,396.18v1.84h2.15v0.82h-2.15v1.93h2.41v0.82h-3.46v-6.27h3.46v0.85L163.7,396.18L163.7,396.18z M169.43,401.65
	c-0.4,0-0.79-0.06-1.13-0.2c-0.31-0.17-0.6-0.37-0.77-0.62c-0.2-0.28-0.31-0.6-0.31-0.96h1.11c0.03,0.28,0.14,0.51,0.31,0.68
	c0.2,0.17,0.45,0.26,0.79,0.26c0.37,0,0.65-0.09,0.85-0.26c0.2-0.17,0.28-0.4,0.28-0.65c0-0.23-0.06-0.4-0.17-0.54
	c-0.14-0.11-0.28-0.23-0.48-0.28c-0.17-0.09-0.43-0.17-0.74-0.26c-0.43-0.09-0.74-0.2-0.99-0.31c-0.26-0.11-0.48-0.28-0.65-0.51
	c-0.2-0.26-0.28-0.57-0.28-0.94s0.09-0.68,0.28-0.96c0.17-0.26,0.43-0.48,0.74-0.62c0.34-0.14,0.71-0.2,1.13-0.2
	c0.6,0,1.11,0.14,1.47,0.45c0.4,0.28,0.62,0.71,0.65,1.25h-1.13c0-0.23-0.11-0.43-0.31-0.6s-0.45-0.23-0.79-0.23
	c-0.28,0-0.54,0.06-0.71,0.2c-0.2,0.17-0.28,0.37-0.28,0.65c0,0.2,0.06,0.37,0.17,0.48c0.11,0.11,0.26,0.23,0.45,0.28
	c0.17,0.09,0.43,0.17,0.74,0.26c0.4,0.11,0.74,0.23,1.02,0.34c0.26,0.11,0.48,0.28,0.65,0.51c0.17,0.26,0.28,0.57,0.28,0.96
	c0,0.31-0.09,0.6-0.26,0.88s-0.43,0.51-0.77,0.68C170.28,401.57,169.88,401.65,169.43,401.65L169.43,401.65z M173.85,396.18v1.84
	H176v0.82h-2.15v1.93h2.41v0.82h-3.43v-6.27h3.43v0.85L173.85,396.18L173.85,396.18z M178.55,395.36v3.97
	c0,0.48,0.11,0.85,0.37,1.08c0.26,0.23,0.6,0.37,1.05,0.37s0.79-0.14,1.05-0.37c0.23-0.23,0.37-0.6,0.37-1.08v-3.97h1.02v3.97
	c0,0.51-0.11,0.94-0.34,1.28c-0.23,0.37-0.51,0.62-0.88,0.79c-0.37,0.17-0.79,0.26-1.25,0.26c-0.45,0-0.85-0.09-1.22-0.26
	s-0.65-0.43-0.88-0.79c-0.23-0.34-0.31-0.77-0.31-1.28v-3.97H178.55z M184.17,401.65c-0.2,0-0.34-0.06-0.48-0.17
	c-0.11-0.14-0.2-0.28-0.2-0.48c0-0.17,0.09-0.34,0.2-0.45c0.14-0.14,0.28-0.2,0.48-0.2c0.17,0,0.31,0.06,0.45,0.2
	c0.11,0.11,0.17,0.28,0.17,0.45c0,0.2-0.06,0.34-0.17,0.48C184.48,401.6,184.34,401.65,184.17,401.65L184.17,401.65z M185.56,398.45
	c0-0.6,0.14-1.16,0.45-1.64c0.28-0.48,0.65-0.85,1.13-1.13c0.51-0.26,1.05-0.4,1.62-0.4c0.68,0,1.28,0.14,1.79,0.48
	s0.88,0.79,1.13,1.39h-1.25c-0.14-0.34-0.37-0.57-0.68-0.74c-0.28-0.17-0.6-0.26-0.99-0.26s-0.77,0.11-1.11,0.28
	c-0.31,0.2-0.57,0.45-0.77,0.82c-0.17,0.34-0.26,0.74-0.26,1.19c0,0.48,0.09,0.88,0.26,1.22c0.2,0.37,0.45,0.62,0.77,0.82
	c0.34,0.17,0.71,0.28,1.11,0.28s0.71-0.09,0.99-0.26c0.31-0.17,0.54-0.4,0.68-0.74h1.25c-0.26,0.6-0.62,1.08-1.13,1.39
	c-0.51,0.31-1.11,0.48-1.79,0.48c-0.6,0-1.13-0.14-1.62-0.4c-0.48-0.28-0.85-0.65-1.13-1.13
	C185.7,399.61,185.56,399.07,185.56,398.45L185.56,398.45z M195.73,401.65c-0.6,0-1.13-0.11-1.62-0.4
	c-0.48-0.28-0.88-0.65-1.16-1.13c-0.28-0.51-0.43-1.05-0.43-1.67c0-0.6,0.14-1.16,0.43-1.64c0.28-0.48,0.68-0.85,1.16-1.13
	c0.48-0.26,1.02-0.4,1.62-0.4c0.57,0,1.11,0.14,1.62,0.4c0.48,0.28,0.85,0.65,1.13,1.13s0.43,1.05,0.43,1.64
	c0,0.62-0.14,1.16-0.43,1.67c-0.28,0.48-0.65,0.85-1.13,1.13C196.84,401.54,196.3,401.65,195.73,401.65L195.73,401.65z
	 M195.73,400.78c0.4,0,0.77-0.09,1.11-0.28c0.31-0.2,0.57-0.45,0.74-0.82c0.2-0.34,0.28-0.74,0.28-1.22c0-0.45-0.09-0.85-0.28-1.19
	c-0.17-0.37-0.43-0.62-0.74-0.82c-0.34-0.17-0.71-0.28-1.11-0.28c-0.43,0-0.79,0.11-1.11,0.28c-0.34,0.2-0.6,0.45-0.77,0.82
	c-0.2,0.34-0.28,0.74-0.28,1.19c0,0.48,0.09,0.88,0.28,1.22c0.17,0.37,0.43,0.62,0.77,0.82
	C194.94,400.69,195.31,400.78,195.73,400.78L195.73,400.78z M206.5,395.36v6.24h-1.02v-4.28l-1.9,4.28h-0.71l-1.93-4.28v4.28h-1.02
	v-6.24h1.11l2.18,4.91l2.21-4.91H206.5z M208.29,401.65c-0.2,0-0.37-0.06-0.48-0.17c-0.11-0.14-0.2-0.28-0.2-0.48
	c0-0.17,0.09-0.34,0.2-0.45c0.11-0.14,0.28-0.2,0.48-0.2c0.17,0,0.31,0.06,0.45,0.2c0.11,0.11,0.17,0.28,0.17,0.45
	c0,0.2-0.06,0.34-0.17,0.48C208.6,401.6,208.46,401.65,208.29,401.65L208.29,401.65z M213.39,398.39c0.31,0.06,0.6,0.23,0.85,0.54
	c0.23,0.28,0.34,0.62,0.34,0.99c0,0.31-0.09,0.6-0.26,0.85c-0.14,0.26-0.4,0.45-0.71,0.6c-0.31,0.17-0.68,0.23-1.08,0.23h-2.52
	v-6.24h2.41c0.43,0,0.79,0.06,1.08,0.2c0.31,0.14,0.54,0.34,0.71,0.6c0.14,0.23,0.23,0.51,0.23,0.79c0,0.37-0.09,0.68-0.28,0.91
	C213.96,398.11,213.7,398.28,213.39,398.39L213.39,398.39z M211.07,397.97h1.25c0.34,0,0.62-0.06,0.79-0.23
	c0.2-0.14,0.28-0.37,0.28-0.65s-0.09-0.51-0.28-0.65c-0.17-0.17-0.45-0.26-0.79-0.26h-1.25V397.97z M212.46,400.78
	c0.34,0,0.6-0.09,0.79-0.26c0.2-0.17,0.31-0.4,0.31-0.71s-0.11-0.54-0.31-0.74c-0.23-0.17-0.48-0.26-0.85-0.26h-1.33v1.96h1.39
	V400.78z M218.95,401.6l-1.45-2.5h-0.77v2.5h-1.05v-6.24h2.18c0.48,0,0.88,0.09,1.22,0.23c0.31,0.17,0.57,0.4,0.74,0.68
	s0.26,0.6,0.26,0.96c0,0.4-0.11,0.77-0.37,1.11c-0.23,0.34-0.6,0.57-1.08,0.68l1.53,2.58L218.95,401.6L218.95,401.6z M216.74,398.28
	h1.13c0.37,0,0.65-0.09,0.85-0.28c0.2-0.2,0.31-0.45,0.31-0.77c0-0.34-0.11-0.6-0.31-0.77c-0.17-0.2-0.48-0.28-0.85-0.28h-1.13
	V398.28z"/>
<rect x="122.34" y="296.9" class="st2" width="63.61" height="63.63"/>
</svg>
